<svg width="38" height="38" viewBox="0 0 38 38" fill="none" xmlns="http://www.w3.org/2000/svg">
<path d="M2.56709 33.0787C2.21611 33.0787 1.92462 32.9606 1.69262 32.7245C1.46037 32.4883 1.34424 32.1958 1.34424 31.8469C1.34424 31.4977 1.46037 31.2074 1.69262 30.9759C1.92462 30.7444 2.21611 30.6287 2.56709 30.6287H34.843C35.1939 30.6287 35.4854 30.7464 35.7174 30.9818C35.9497 31.2171 36.0658 31.5089 36.0658 31.857C36.0658 32.2049 35.9497 32.4955 35.7174 32.7288C35.4854 32.962 35.1939 33.0787 34.843 33.0787H2.56709ZM5.53927 28.2905C4.82224 28.2905 4.20055 28.0272 3.67421 27.5006C3.1476 26.9743 2.8843 26.3526 2.8843 25.6356V7.09792C2.8843 6.37829 3.1476 5.75439 3.67421 5.22623C4.20055 4.6978 4.82224 4.43359 5.53927 4.43359H31.8708C32.5904 4.43359 33.2143 4.6978 33.7425 5.22623C34.2709 5.75439 34.5351 6.37829 34.5351 7.09792V25.6356C34.5351 26.3526 34.2709 26.9743 33.7425 27.5006C33.2143 28.0272 32.5904 28.2905 31.8708 28.2905H5.53927ZM5.53927 25.6356H31.8708V7.09792H5.53927V25.6356Z" fill="#FDCF0B"/>
</svg>
