<svg width="40" height="40" viewBox="0 0 40 40" fill="none" xmlns="http://www.w3.org/2000/svg">
<path d="M16.4493 10.6242H28.571C28.9499 10.6242 29.2695 10.7553 29.5297 11.0175C29.7903 11.2798 29.9206 11.6016 29.9206 11.983C29.9206 12.3646 29.7903 12.6817 29.5297 12.9342C29.2695 13.187 28.9499 13.3134 28.571 13.3134H16.4493C16.0688 13.3134 15.7503 13.1846 15.4939 12.9271C15.2378 12.6696 15.1097 12.35 15.1097 11.9684C15.1097 11.587 15.2378 11.2675 15.4939 11.01C15.7503 10.7528 16.0688 10.6242 16.4493 10.6242ZM16.4493 15.8134H28.571C28.9499 15.8134 29.2695 15.9445 29.5297 16.2067C29.7903 16.4689 29.9206 16.7907 29.9206 17.1721C29.9206 17.5538 29.7903 17.8727 29.5297 18.1288C29.2695 18.3846 28.9499 18.5125 28.571 18.5125H16.4493C16.0688 18.5125 15.7503 18.3816 15.4939 18.1196C15.2378 17.8574 15.1097 17.5355 15.1097 17.1538C15.1097 16.7724 15.2378 16.4537 15.4939 16.1975C15.7503 15.9414 16.0688 15.8134 16.4493 15.8134ZM9.46473 36.9159C8.15528 36.9159 7.04237 36.4575 6.12598 35.5409C5.20931 34.6245 4.75098 33.5116 4.75098 32.2021V27.6676C4.75098 27.267 4.88737 26.9303 5.16014 26.6576C5.43292 26.3848 5.76973 26.2484 6.17056 26.2484H9.76098V5.92297C9.76098 5.13269 10.0382 4.46033 10.5926 3.90588C11.1471 3.35144 11.8195 3.07422 12.6097 3.07422H32.4206C33.2008 3.07422 33.869 3.35144 34.4251 3.90588C34.9813 4.46033 35.2593 5.13269 35.2593 5.92297V16.9938C35.2593 17.3944 35.1222 17.731 34.8481 18.0038C34.5739 18.2766 34.2354 18.413 33.8326 18.413C33.4299 18.413 33.0938 18.2766 32.8243 18.0038C32.5551 17.731 32.4206 17.3944 32.4206 16.9938V5.92297H12.6097V26.2484H19.3643C19.764 26.2484 20.1022 26.3855 20.3789 26.6596C20.6553 26.9338 20.7935 27.2723 20.7935 27.675C20.7935 28.0778 20.6553 28.4138 20.3789 28.683C20.1022 28.9524 19.764 29.0871 19.3643 29.0871H7.58973V32.1971C7.58973 32.7296 7.77028 33.1762 8.13139 33.5367C8.4925 33.897 8.92306 34.0771 9.42306 34.0771H19.3643C19.764 34.0771 20.1022 34.2142 20.3789 34.4884C20.6553 34.7625 20.7935 35.101 20.7935 35.5038C20.7935 35.9066 20.6553 36.2426 20.3789 36.5117C20.1022 36.7812 19.764 36.9159 19.3643 36.9159H9.46473ZM23.2935 35.4963V32.1513C23.2935 31.9769 23.3263 31.8078 23.3918 31.6442C23.4574 31.4809 23.5663 31.3217 23.7185 31.1667L32.5256 22.3846C32.7928 22.1135 33.0897 21.9178 33.4164 21.7976C33.7431 21.677 34.0714 21.6167 34.4014 21.6167C34.7481 21.6167 35.0843 21.6842 35.4101 21.8192C35.736 21.9542 36.0301 22.1534 36.2926 22.4167L37.8343 23.9584C38.0965 24.2217 38.2885 24.515 38.4101 24.8384C38.5318 25.1614 38.5926 25.4846 38.5926 25.808C38.5926 26.1402 38.5251 26.4744 38.3901 26.8105C38.2551 27.1463 38.0549 27.4477 37.7893 27.7146L29.0426 36.5009C28.8888 36.6531 28.7297 36.7603 28.5656 36.8225C28.4017 36.8848 28.2325 36.9159 28.0581 36.9159H24.7131C24.3122 36.9159 23.9754 36.7795 23.7026 36.5067C23.4299 36.2339 23.2935 35.8971 23.2935 35.4963ZM25.9431 34.2663H27.5264L32.5381 29.2151L31.7881 28.4225L30.9964 27.6713L25.9431 32.6805V34.2663ZM31.7881 28.4213L30.9964 27.6713L32.5381 29.213L31.7881 28.4213Z" fill="#FDCF0B"/>
</svg>
