<svg width="40" height="40" viewBox="0 0 40 40" fill="none" xmlns="http://www.w3.org/2000/svg">
<path d="M5.97092 18.8097C5.57037 18.8097 5.2337 18.6733 4.96092 18.4005C4.68815 18.1277 4.55176 17.7911 4.55176 17.3905V5.97092C4.55176 5.57037 4.68815 5.2337 4.96092 4.96092C5.2337 4.68815 5.57037 4.55176 5.97092 4.55176H17.3905C17.7911 4.55176 18.1277 4.68815 18.4005 4.96092C18.6733 5.2337 18.8097 5.57037 18.8097 5.97092V17.3905C18.8097 17.7911 18.6733 18.1277 18.4005 18.4005C18.1277 18.6733 17.7911 18.8097 17.3905 18.8097H5.97092ZM22.6097 18.8097C22.2091 18.8097 21.8725 18.6733 21.5997 18.4005C21.3269 18.1277 21.1905 17.7911 21.1905 17.3905V5.97092C21.1905 5.57037 21.3269 5.2337 21.5997 4.96092C21.8725 4.68815 22.2091 4.55176 22.6097 4.55176H34.0293C34.4298 4.55176 34.7665 4.68815 35.0393 4.96092C35.312 5.2337 35.4484 5.57037 35.4484 5.97092V17.3905C35.4484 17.7911 35.312 18.1277 35.0393 18.4005C34.7665 18.6733 34.4298 18.8097 34.0293 18.8097H22.6097ZM5.97092 35.4484C5.57037 35.4484 5.2337 35.312 4.96092 35.0393C4.68815 34.7665 4.55176 34.4298 4.55176 34.0293V22.6097C4.55176 22.2091 4.68815 21.8725 4.96092 21.5997C5.2337 21.3269 5.57037 21.1905 5.97092 21.1905H17.3905C17.7911 21.1905 18.1277 21.3269 18.4005 21.5997C18.6733 21.8725 18.8097 22.2091 18.8097 22.6097V34.0293C18.8097 34.4298 18.6733 34.7665 18.4005 35.0393C18.1277 35.312 17.7911 35.4484 17.3905 35.4484H5.97092ZM28.3172 35.4484C27.9077 35.4484 27.5683 35.312 27.2988 35.0393C27.0297 34.7665 26.8951 34.4298 26.8951 34.0293V29.7438H22.568C22.1883 29.7438 21.8637 29.6051 21.5943 29.3276C21.3251 29.0501 21.1905 28.71 21.1905 28.3072C21.1905 27.9044 21.3269 27.5683 21.5997 27.2988C21.8725 27.0297 22.2091 26.8951 22.6097 26.8951H26.8951V22.568C26.8951 22.1883 27.0338 21.8637 27.3113 21.5943C27.5888 21.3251 27.929 21.1905 28.3318 21.1905C28.7345 21.1905 29.0705 21.3269 29.3397 21.5997C29.6091 21.8725 29.7438 22.2091 29.7438 22.6097V26.8951H34.0709C34.4506 26.8951 34.7752 27.0338 35.0447 27.3113C35.3138 27.5888 35.4484 27.9256 35.4484 28.3218C35.4484 28.7312 35.312 29.0705 35.0393 29.3397C34.7665 29.6091 34.4298 29.7438 34.0293 29.7438H29.7438V34.0709C29.7438 34.4506 29.6051 34.7752 29.3276 35.0447C29.0501 35.3138 28.7133 35.4484 28.3172 35.4484ZM24.0388 7.39051V15.9613H32.6097V7.39051H24.0388ZM7.40051 7.39051V15.9613H15.9709V7.39051H7.40051ZM7.40051 24.0293V32.5997H15.9709V24.0293H7.40051Z" fill="#FDCF0B"/>
</svg>
