<svg width="40" height="40" viewBox="0 0 40 40" fill="none" xmlns="http://www.w3.org/2000/svg">
<path d="M35.2889 18.4349V32.4999C35.2889 33.2666 35.0066 33.9313 34.4418 34.4941C33.8768 35.0571 33.2098 35.3386 32.4406 35.3386H7.51809C6.7517 35.3386 6.08698 35.0571 5.52393 34.4941C4.96087 33.9313 4.67934 33.2666 4.67934 32.4999V18.4545C3.88851 17.7481 3.37795 16.8953 3.14768 15.8961C2.91768 14.897 2.95545 13.9084 3.26101 12.9303L5.05268 7.30531C5.2949 6.50197 5.71226 5.87378 6.30476 5.42072C6.89726 4.96739 7.5874 4.74072 8.37518 4.74072H31.4168C32.2521 4.74072 32.9835 4.97433 33.611 5.44155C34.2388 5.9085 34.6705 6.52975 34.906 7.30531L36.7393 12.9303C37.0449 13.9025 37.0724 14.8846 36.8218 15.8766C36.5713 16.8688 36.0603 17.7216 35.2889 18.4349ZM23.7548 16.9936C24.5273 16.9936 25.1838 16.7407 25.7243 16.2349C26.2652 15.7291 26.48 15.1124 26.3689 14.3849L25.3373 7.58947H21.3398V14.3749C21.3398 15.0854 21.5677 15.6996 22.0235 16.2174C22.4791 16.7349 23.0561 16.9936 23.7548 16.9936ZM15.9539 16.9936C16.702 16.9936 17.34 16.74 17.8681 16.2328C18.3964 15.7256 18.6606 15.1063 18.6606 14.3749V7.58947H14.6631L13.6314 14.3849C13.527 15.0804 13.7114 15.6892 14.1848 16.2111C14.6584 16.7328 15.2481 16.9936 15.9539 16.9936ZM8.37768 16.9936C9.00906 16.9936 9.56295 16.7695 10.0393 16.3211C10.5157 15.8728 10.7923 15.3285 10.8689 14.6882L11.9423 7.58947H7.94476L6.04809 13.6032C5.77698 14.4524 5.88143 15.2298 6.36143 15.9353C6.8417 16.6409 7.51379 16.9936 8.37768 16.9936ZM31.5835 16.9936C32.4457 16.9936 33.1239 16.6474 33.6181 15.9549C34.112 15.2627 34.2234 14.4788 33.9523 13.6032L32.0556 7.58947H28.0681L29.1314 14.6882C29.2081 15.3285 29.4802 15.8728 29.9477 16.3211C30.4152 16.7695 30.9605 16.9936 31.5835 16.9936ZM7.51809 32.4999H32.4406V19.8007C32.4881 19.8218 32.4093 19.8324 32.2043 19.8324H31.5823C30.922 19.8324 30.276 19.6932 29.6443 19.4149C29.0127 19.1363 28.3813 18.7014 27.7502 18.1103C27.2991 18.6459 26.7395 19.0668 26.0714 19.3732C25.4031 19.6793 24.6725 19.8324 23.8798 19.8324C23.0567 19.8324 22.3449 19.7193 21.7443 19.4932C21.1438 19.2671 20.5624 18.8895 20.0002 18.3603C19.5721 18.84 19.0398 19.2053 18.4031 19.4561C17.7667 19.707 17.0505 19.8324 16.2543 19.8324C15.4038 19.8324 14.6448 19.6861 13.9773 19.3936C13.3095 19.1011 12.7338 18.6734 12.2502 18.1103C11.5635 18.6803 10.8941 19.1099 10.2418 19.3991C9.5899 19.6879 8.96768 19.8324 8.37518 19.8324H7.84268C7.67545 19.8324 7.56726 19.8218 7.51809 19.8007V32.4999ZM14.0418 30.3378H17.3752C17.5974 30.3378 17.7849 30.2586 17.9377 30.1003C18.0905 29.942 18.1668 29.7572 18.1668 29.5461C18.1668 29.335 18.0877 29.1503 17.9293 28.992C17.771 28.8336 17.5863 28.7545 17.3752 28.7545H14.8335V26.8378H17.3702C17.5957 26.8378 17.7849 26.757 17.9377 26.5953C18.0905 26.4336 18.1668 26.2506 18.1668 26.0461V22.7128C18.1668 22.4906 18.0877 22.3031 17.9293 22.1503C17.771 21.9975 17.5863 21.9211 17.3752 21.9211H14.0418C13.8196 21.9211 13.6321 21.9986 13.4793 22.1536C13.3266 22.3086 13.2502 22.495 13.2502 22.7128C13.2502 22.9172 13.3293 23.1003 13.4877 23.262C13.646 23.4236 13.8307 23.5045 14.0418 23.5045H16.5835V25.2545H14.0468C13.8213 25.2545 13.6321 25.3336 13.4793 25.492C13.3266 25.6503 13.2502 25.835 13.2502 26.0461V29.5311C13.2502 29.7567 13.3293 29.9475 13.4877 30.1036C13.646 30.2597 13.8307 30.3378 14.0418 30.3378ZM25.1668 26.8378V29.5461C25.1668 29.7506 25.246 29.9336 25.4043 30.0953C25.5627 30.257 25.7474 30.3378 25.9585 30.3378C26.1696 30.3378 26.3543 30.257 26.5127 30.0953C26.671 29.9336 26.7502 29.7506 26.7502 29.5461V22.7207C26.7502 22.4932 26.671 22.3031 26.5127 22.1503C26.3543 21.9975 26.1696 21.9211 25.9585 21.9211C25.7474 21.9211 25.5627 22.0003 25.4043 22.1586C25.246 22.317 25.1668 22.5017 25.1668 22.7128V25.2545H23.4168V22.7178C23.4168 22.4923 23.3377 22.3031 23.1793 22.1503C23.021 21.9975 22.8363 21.9211 22.6252 21.9211C22.4141 21.9211 22.2293 22.0003 22.071 22.1586C21.9127 22.317 21.8335 22.5017 21.8335 22.7128V26.0461C21.8335 26.2617 21.9127 26.4475 22.071 26.6036C22.2293 26.7597 22.4141 26.8378 22.6252 26.8378H25.1668Z" fill="#FDCF0B"/>
</svg>
