<svg width="38" height="38" viewBox="0 0 38 38" fill="none" xmlns="http://www.w3.org/2000/svg">
<path d="M18.7052 32.4611C17.7699 32.4611 16.9516 32.1104 16.2501 31.409C15.5487 30.7075 15.198 29.8892 15.198 28.9539C15.198 28.0187 15.5487 27.2003 16.2501 26.4989C16.9516 25.7974 17.7699 25.4467 18.7052 25.4467C19.6405 25.4467 20.4588 25.7974 21.1603 26.4989C21.8617 27.2003 22.2124 28.0187 22.2124 28.9539C22.2124 29.8892 21.8617 30.7075 21.1603 31.409C20.4588 32.1104 19.6405 32.4611 18.7052 32.4611ZM18.7052 15.5875C20.7129 15.5875 22.5922 15.9385 24.3433 16.6404C26.0945 17.3424 27.7885 18.3887 29.4252 19.7794C29.8074 20.1034 30.0115 20.5197 30.0374 21.0284C30.0634 21.537 29.8884 21.9793 29.5125 22.3553C29.1301 22.7377 28.6895 22.9206 28.1907 22.9039C27.6921 22.8873 27.2324 22.72 26.8116 22.402C25.4596 21.2901 24.1119 20.4966 22.7685 20.0214C21.4254 19.5465 20.0709 19.309 18.7052 19.309C17.3457 19.309 15.9944 19.5465 14.6512 20.0214C13.3078 20.4966 11.9601 21.287 10.6082 22.3927C10.1873 22.7107 9.72604 22.8811 9.22437 22.9039C8.72245 22.9268 8.2834 22.747 7.90721 22.3646C7.52505 21.9884 7.34697 21.5461 7.37294 21.0377C7.39892 20.529 7.60299 20.1126 7.98515 19.7884C9.62186 18.3979 11.3159 17.3502 13.0671 16.6451C14.8181 15.94 16.6975 15.5875 18.7052 15.5875ZM18.7052 6.23486C22.0119 6.23486 25.1333 6.85863 28.0695 8.10617C31.006 9.3537 33.65 11.0204 36.0017 13.1063C36.3901 13.4562 36.6037 13.8871 36.6427 14.3989C36.6817 14.9107 36.5132 15.3546 36.1373 15.7305C35.7549 16.1129 35.2948 16.3007 34.757 16.294C34.2195 16.2872 33.7403 16.1088 33.3194 15.7586C31.1881 13.9774 28.9116 12.565 26.4901 11.5214C24.0688 10.4781 21.4738 9.95642 18.7052 9.95642C15.9366 9.95642 13.3416 10.4781 10.9203 11.5214C8.49877 12.565 6.22231 13.9774 4.09096 15.7586C3.67009 16.1088 3.19895 16.2872 2.67754 16.294C2.15588 16.3007 1.70383 16.1129 1.32142 15.7305C0.939258 15.3546 0.761169 14.9107 0.787149 14.3989C0.813128 13.8871 1.02031 13.4562 1.40871 13.1063C3.76037 11.0204 6.40443 9.3537 9.34089 8.10617C12.2771 6.85863 15.3985 6.23486 18.7052 6.23486Z" fill="#FDCF0B"/>
</svg>
